<?xml version="1.0"?>
<svg xmlns="http://www.w3.org/2000/svg" xmlns:xlink="http://www.w3.org/1999/xlink" xmlns:svgjs="http://svgjs.com/svgjs" version="1.1" width="512" height="512" x="0" y="0" viewBox="0 0 512 512" style="enable-background:new 0 0 512 512" xml:space="preserve" class=""><g>
<g xmlns="http://www.w3.org/2000/svg" transform="translate(0 -1)">
	<g transform="translate(1 2)">
		<path style="" d="M109.934,417.169H58.904c-4.553,0.037-8.933-1.744-12.169-4.948    c-3.236-3.204-5.06-7.566-5.068-12.119v-40.107l61.867,8.107C103.534,368.102,109.814,411.633,109.934,417.169z" fill="#c8102e" data-original="#f5f5f5" class=""/>
		<path style="" d="M331.8,308.881c-0.007,15.064,4.974,29.707,14.165,41.643    c12.093,15.677,13.703,37.045,4.096,54.357l-2.645,4.779c-10.095,18.35-25.03,33.58-43.179,44.032v0.085    c-20.563,11.801-44.386,16.65-67.925,13.824c-11.329-1.383-22.379-4.491-32.768-9.216l-24.32-11.179    c-0.676-0.344-1.393-0.602-2.133-0.768l-57.003-14.763c-6.038-1.636-10.211-7.142-10.155-13.397v-1.109    c-0.25-11.488-4.133-22.601-11.093-31.744c-7.111-9.299-17.205-15.868-28.587-18.603l-28.587-6.827l-12.373-2.901    C-2.705,290.615,0.764,212.52,38.531,149.14S143.331,45.541,217.027,42.044c4.096-0.256,8.192-0.341,12.373-0.341    c97.707,0,164.352,44.715,197.376,110.933c-3.607-0.108-7.166,0.841-10.24,2.731c-6.784,3.896-9.689,12.175-6.827,19.456    l19.968,48.896c0.233,0.539,0.519,1.054,0.853,1.536l-55.808,20.821C348.679,255.961,331.549,281.025,331.8,308.881z" fill="#ffffff" data-original="#c52828" class=""/>
		<path style="" d="M306.2,308.881c-0.007,15.064,4.974,29.707,14.165,41.643    c12.092,15.677,13.703,37.045,4.096,54.357l-2.645,4.779c-10.095,18.35-25.03,33.58-43.179,44.032v0.085    c-13.007,7.472-27.416,12.178-42.325,13.824c-11.329-1.383-22.379-4.491-32.768-9.216l-24.32-11.179    c-0.676-0.344-1.393-0.602-2.133-0.768l-57.003-14.763c-6.038-1.636-10.211-7.142-10.155-13.397v-1.109    c-0.25-11.488-4.133-22.601-11.093-31.744c-7.111-9.299-17.205-15.868-28.587-18.603l-28.587-6.827l-12.373-2.901    C-2.705,290.615,0.764,212.52,38.531,149.14S143.331,45.541,217.027,42.044c90.539,3.84,152.661,47.445,184.149,110.592    c-3.607-0.108-7.166,0.841-10.24,2.731c-6.784,3.896-9.689,12.175-6.827,19.456l19.968,48.896    c0.233,0.539,0.519,1.054,0.853,1.536l-55.808,20.821C323.079,255.961,305.949,281.025,306.2,308.881z" fill="#0c2340" data-original="#f44335" class=""/>
		<g>
			<circle style="" cx="165.4" cy="404.36" r="12.8" fill="#c8102e" data-original="#f5f5f5" class=""/>
			<circle style="" cx="225.134" cy="421.427" r="12.8" fill="#c8102e" data-original="#f5f5f5" class=""/>
			<circle style="" cx="276.334" cy="412.894" r="12.8" fill="#c8102e" data-original="#f5f5f5" class=""/>
			<circle style="" cx="259.267" cy="233.694" r="12.8" fill="#c8102e" data-original="#f5f5f5" class=""/>
		</g>
		<circle style="" cx="225.134" cy="327.56" r="46.933" fill="#ffffff" data-original="#c52828" class=""/>
		<path style="" d="M463.043,219.196l-20.139,9.301c-4.368,2.027-9.561,0.667-12.373-3.243    c-0.334-0.483-0.62-0.997-0.853-1.536l-19.968-48.896c-2.863-7.281,0.042-15.56,6.827-19.456c3.074-1.89,6.633-2.839,10.24-2.731    c6.477-0.019,12.468,3.433,15.701,9.045l24.832,45.739c1.12,2.108,1.295,4.591,0.482,6.835    C466.978,216.499,465.253,218.294,463.043,219.196z" fill="#c8102e" data-original="#f5f5f5" class=""/>
	</g>
	<g>
		<path d="M166.4,385.023c-11.782,0-21.333,9.551-21.333,21.333c0,11.782,9.551,21.333,21.333,21.333    c11.782,0,21.333-9.551,21.333-21.333C187.72,394.58,178.177,385.037,166.4,385.023L166.4,385.023z M166.4,410.623    c-2.356,0-4.267-1.91-4.267-4.267s1.91-4.267,4.267-4.267s4.267,1.91,4.267,4.267C170.665,408.712,168.756,410.622,166.4,410.623z    " fill="#4b92db" data-original="#000000" style="" class=""/>
		<path d="M226.134,402.09c-11.782,0-21.333,9.551-21.333,21.333s9.551,21.333,21.333,21.333c11.782,0,21.333-9.551,21.333-21.333    C247.453,411.647,237.91,402.104,226.134,402.09z M226.134,427.69c-2.356,0-4.267-1.91-4.267-4.267s1.91-4.267,4.267-4.267    s4.267,1.91,4.267,4.267C230.399,425.779,228.489,427.688,226.134,427.69L226.134,427.69z" fill="#4b92db" data-original="#000000" style="" class=""/>
		<path d="M277.334,393.557c-11.782,0-21.333,9.551-21.333,21.333c0,11.782,9.551,21.333,21.333,21.333s21.333-9.551,21.333-21.333    C298.653,403.114,289.11,393.57,277.334,393.557z M277.334,419.157c-2.356,0-4.267-1.91-4.267-4.267    c0-2.356,1.91-4.267,4.267-4.267s4.267,1.91,4.267,4.267C281.599,417.246,279.69,419.155,277.334,419.157z" fill="#4b92db" data-original="#000000" style="" class=""/>
		<path d="M260.267,257.023c11.782,0,21.333-9.551,21.333-21.333s-9.551-21.333-21.333-21.333c-11.782,0-21.333,9.551-21.333,21.333    C238.948,247.466,248.491,257.009,260.267,257.023L260.267,257.023z M260.267,231.423c2.356,0,4.267,1.91,4.267,4.267    c0,2.356-1.91,4.267-4.267,4.267c-2.356,0-4.267-1.91-4.267-4.267C256.002,233.334,257.911,231.425,260.267,231.423z" fill="#4b92db" data-original="#000000" style="" class=""/>
		<path d="M281.6,329.557c0-30.633-24.833-55.467-55.467-55.467s-55.467,24.833-55.467,55.467s24.833,55.467,55.467,55.467    C256.752,384.988,281.565,360.175,281.6,329.557L281.6,329.557z M226.134,367.957c-21.208,0-38.4-17.192-38.4-38.4    s17.192-38.4,38.4-38.4s38.4,17.192,38.4,38.4C264.511,350.755,247.332,367.933,226.134,367.957L226.134,367.957z" fill="#4b92db" data-original="#000000" style="" class=""/>
		<path d="M213.334,86.357c0-4.713-3.821-8.533-8.533-8.533c-94.104,0-170.667,86.129-170.667,192c0,4.713,3.821,8.533,8.533,8.533    s8.533-3.82,8.533-8.533c0-96.458,68.904-174.933,153.6-174.933C209.513,94.89,213.334,91.069,213.334,86.357L213.334,86.357z" fill="#4b92db" data-original="#000000" style="" class=""/>
		<path d="M480.338,300.056c-3.011-0.92-6.284-0.099-8.504,2.133c-21.092,21.055-46.248,37.596-73.937,48.617l-20.013-94.373    c0.277-0.106,0.522-0.266,0.801-0.368l51.089-18.927c0.933,0.588,1.917,1.092,2.94,1.506c4.766,1.873,10.087,1.73,14.746-0.396    l20.158-9.271c4.425-2.007,7.825-5.752,9.396-10.35c1.478-4.39,1.045-9.198-1.192-13.254l-24.875-45.75    c-3.482-6.239-9.361-10.786-16.275-12.587c-0.473-0.125-0.96-0.129-1.438-0.229C395.436,74.813,323.653,35.157,230.4,35.157    C103.684,34.831,0.616,137.137,0,263.852c-0.064,34.266,7.666,68.099,22.604,98.938c1.118,2.313,3.217,4.001,5.717,4.596    l5.812,1.38v33.324c0.015,14.106,11.427,25.548,25.533,25.6h43.979c2.387,7.015,8.135,12.363,15.304,14.238l57.713,15.021    l24.329,11.183c34.856,15.865,75.211,14.022,108.475-4.954c0.332-0.191,0.651-0.404,0.954-0.638    c12.753-7.569,24.022-17.395,33.256-29l53.907-15.431c10.498,19.247,30.655,31.239,52.579,31.281c1.746,0,3.504-0.075,5.262-0.229    l48.812-4.437c2.412-0.218,4.617-1.451,6.066-3.391c1.449-1.94,2.005-4.405,1.529-6.78l-25.6-128.009    C485.615,303.46,483.349,300.966,480.338,300.056z M472.513,324.911l6.947,34.743c-21.285,16.869-45.527,29.624-71.484,37.611    l-6.45-29.554C427.522,357.732,451.553,343.243,472.513,324.911L472.513,324.911z M391.557,402.083l-33.381,9.554l0.341-0.618    c4.794-8.63,7.309-18.34,7.308-28.212c0-1.359-0.241-2.693-0.336-4.044l13.786-3.773c2.163-0.596,4.142-1.163,5.996-1.717    L391.557,402.083z M381.663,356.532c-2.287,0.7-4.592,1.363-6.912,2.004l-12.896,3.53c-1.971-5.303-4.716-10.285-8.146-14.784    c-8.03-10.439-12.382-23.242-12.375-36.413c-0.041-17.47,7.667-34.059,21.045-45.293L381.663,356.532z M460.488,213.469    l-20.162,9.275c-0.583,0.227-1.241,0.138-1.742-0.238l-19.946-48.904c-1.292-3.305,0.051-7.056,3.146-8.792l0.029-0.017    l0.229-0.133c1.632-0.991,3.507-1.511,5.417-1.504c0.947-0.001,1.89,0.124,2.804,0.371c2.402,0.571,4.462,2.109,5.692,4.25    L460.488,213.469z M59.825,410.623h-0.079c-4.711-0.01-8.529-3.823-8.546-8.533v-29.272l18.096,4.297    c9.476,2.262,17.875,7.736,23.771,15.492c4.042,5.319,6.843,11.475,8.196,18.017H59.825z M300.992,448.277    c-0.298,0.174-0.586,0.365-0.862,0.571c-28.334,15.801-62.489,17.2-92.021,3.771l-24.067-11.059    c-1.211-0.615-2.491-1.083-3.812-1.396l-57.013-14.763c-2.259-0.677-3.791-2.775-3.75-5.133c0-0.269-0.061-0.527-0.064-0.796    c0.004-0.111,0.064-0.204,0.064-0.317c0-0.261-0.126-0.481-0.149-0.737c-0.297-13.123-4.757-25.811-12.734-36.234    c-8.323-10.818-20.093-18.466-33.358-21.679l-36.962-8.779c-12.704-27.55-19.255-57.537-19.196-87.875    C17.672,146.559,113.106,51.888,230.4,52.223c84.103,0,149.207,34.371,184.695,96.943c-0.654,0.33-1.351,0.56-1.978,0.945    l-0.029,0.017c-10.307,6.096-14.653,18.781-10.25,29.917l17.315,42.462l-47.361,17.542c-29.389,11.142-48.745,39.391-48.525,70.82    c0,16.958,5.611,33.44,15.958,46.875c10,12.981,11.325,30.665,3.371,44.992l-2.646,4.783    C331.606,424.502,317.786,438.599,300.992,448.277L300.992,448.277z M453.905,432.161c-15.635,1.371-30.759-5.955-39.375-19.074    c24.641-7.745,47.838-19.496,68.66-34.779l10.052,50.278L453.905,432.161z" fill="#4b92db" data-original="#000000" style="" class=""/>
	</g>
</g>
<g xmlns="http://www.w3.org/2000/svg">
</g>
<g xmlns="http://www.w3.org/2000/svg">
</g>
<g xmlns="http://www.w3.org/2000/svg">
</g>
<g xmlns="http://www.w3.org/2000/svg">
</g>
<g xmlns="http://www.w3.org/2000/svg">
</g>
<g xmlns="http://www.w3.org/2000/svg">
</g>
<g xmlns="http://www.w3.org/2000/svg">
</g>
<g xmlns="http://www.w3.org/2000/svg">
</g>
<g xmlns="http://www.w3.org/2000/svg">
</g>
<g xmlns="http://www.w3.org/2000/svg">
</g>
<g xmlns="http://www.w3.org/2000/svg">
</g>
<g xmlns="http://www.w3.org/2000/svg">
</g>
<g xmlns="http://www.w3.org/2000/svg">
</g>
<g xmlns="http://www.w3.org/2000/svg">
</g>
<g xmlns="http://www.w3.org/2000/svg">
</g>
</g></svg>
