<svg id="Layer_1" enable-background="new 0 0 256 256" height="512" viewBox="0 0 256 256" width="512" xmlns="http://www.w3.org/2000/svg"><g><g><path d="m8 64.739v104.736c0 9.296 7.751 16.832 17.312 16.832h142.82c9.561 0 17.312-7.536 17.312-16.832v-104.736z" fill="#a4c9ff"/></g><g><path d="m124.15 100.922h-16.77c-2.168 0-3.926-1.758-3.926-3.926v-16.088c0-2.168 1.758-3.926 3.926-3.926h16.77c2.168 0 3.926 1.758 3.926 3.926v16.088c0 2.169-1.758 3.926-3.926 3.926z" fill="#e0ebfc"/></g><g><path d="m124.15 137.952h-16.77c-2.168 0-3.926-1.758-3.926-3.926v-16.088c0-2.168 1.758-3.926 3.926-3.926h16.77c2.168 0 3.926 1.758 3.926 3.926v16.088c0 2.169-1.758 3.926-3.926 3.926z" fill="#e0ebfc"/></g><g><path d="m124.15 174.064h-16.77c-2.168 0-3.926-1.758-3.926-3.926v-16.088c0-2.168 1.758-3.926 3.926-3.926h16.77c2.168 0 3.926 1.758 3.926 3.926v16.088c0 2.169-1.758 3.926-3.926 3.926z" fill="#e0ebfc"/></g><g><path d="m162.235 100.922h-16.77c-2.168 0-3.926-1.758-3.926-3.926v-16.088c0-2.168 1.758-3.926 3.926-3.926h16.77c2.168 0 3.926 1.758 3.926 3.926v16.088c0 2.169-1.758 3.926-3.926 3.926z" fill="#e0ebfc"/></g><g><path d="m162.235 137.952h-16.77c-2.168 0-3.926-1.758-3.926-3.926v-16.088c0-2.168 1.758-3.926 3.926-3.926h16.77c2.168 0 3.926 1.758 3.926 3.926v16.088c0 2.169-1.758 3.926-3.926 3.926z" fill="#e0ebfc"/></g><g><path d="m86.064 137.952h-16.77c-2.168 0-3.926-1.758-3.926-3.926v-16.088c0-2.168 1.758-3.926 3.926-3.926h16.77c2.168 0 3.926 1.758 3.926 3.926v16.088c0 2.169-1.758 3.926-3.926 3.926z" fill="#e0ebfc"/></g><g><path d="m86.064 174.064h-16.77c-2.168 0-3.926-1.758-3.926-3.926v-16.088c0-2.168 1.758-3.926 3.926-3.926h16.77c2.168 0 3.926 1.758 3.926 3.926v16.088c0 2.169-1.758 3.926-3.926 3.926z" fill="#e0ebfc"/></g><g><path d="m47.979 137.952h-16.77c-2.168 0-3.926-1.758-3.926-3.926v-16.088c0-2.168 1.758-3.926 3.926-3.926h16.77c2.168 0 3.926 1.758 3.926 3.926v16.088c0 2.169-1.758 3.926-3.926 3.926z" fill="#e0ebfc"/></g><g><path d="m47.979 174.064h-16.77c-2.168 0-3.926-1.758-3.926-3.926v-16.088c0-2.168 1.758-3.926 3.926-3.926h16.77c2.168 0 3.926 1.758 3.926 3.926v16.088c0 2.169-1.758 3.926-3.926 3.926z" fill="#e0ebfc"/></g><g><path d="m168.132 26.404h-142.82c-9.561 0-17.312 7.536-17.312 16.832v21.503h177.443v-21.503c0-9.296-7.75-16.832-17.311-16.832z" fill="#4671c6"/></g><g><path d="m168.132 188.308h-142.82c-10.649 0-19.312-8.449-19.312-18.832v-104.737c0-1.104.896-2 2-2h177.443c1.104 0 2 .896 2 2v104.736c0 10.384-8.663 18.833-19.311 18.833zm-158.132-121.569v102.736c0 8.179 6.869 14.832 15.312 14.832h142.82c8.443 0 15.312-6.653 15.312-14.832v-102.736z" fill="#3762cc"/></g><g><path d="m185.443 66.739h-177.443c-1.104 0-2-.896-2-2v-21.503c0-10.384 8.663-18.832 19.312-18.832h142.82c10.648 0 19.312 8.448 19.312 18.832v21.503c-.001 1.105-.896 2-2.001 2zm-175.443-4h173.443v-19.503c0-8.179-6.869-14.832-15.312-14.832h-142.819c-8.443 0-15.312 6.654-15.312 14.832z" fill="#3762cc"/></g><g><path d="m95.818 50.944h-.242c-4.714 0-8.535-3.821-8.535-8.535v-25.01c0-4.714 3.821-8.535 8.535-8.535h.242c4.714 0 8.535 3.821 8.535 8.535v25.01c0 4.713-3.822 8.535-8.535 8.535z" fill="#6bdddd"/></g><g><path d="m43.473 50.944h-.242c-4.714 0-8.535-3.821-8.535-8.535v-25.01c0-4.714 3.821-8.535 8.535-8.535h.242c4.714 0 8.535 3.821 8.535 8.535v25.01c0 4.713-3.821 8.535-8.535 8.535z" fill="#6bdddd"/></g><g><path d="m148.162 50.944h-.242c-4.714 0-8.535-3.821-8.535-8.535v-25.01c0-4.714 3.821-8.535 8.535-8.535h.242c4.714 0 8.535 3.821 8.535 8.535v25.01c0 4.713-3.821 8.535-8.535 8.535z" fill="#6bdddd"/></g><g><path d="m95.817 52.943h-.241c-5.809 0-10.535-4.726-10.535-10.535v-25.01c0-5.809 4.726-10.534 10.535-10.534h.241c5.809 0 10.535 4.726 10.535 10.534v25.01c.001 5.81-4.726 10.535-10.535 10.535zm-.241-42.079c-3.604 0-6.535 2.932-6.535 6.534v25.01c0 3.604 2.932 6.535 6.535 6.535h.241c3.604 0 6.535-2.932 6.535-6.535v-25.01c0-3.603-2.932-6.534-6.535-6.534z" fill="#3762cc"/></g><g><path d="m43.473 52.943h-.242c-5.809 0-10.535-4.726-10.535-10.535v-25.01c0-5.809 4.726-10.534 10.535-10.534h.242c5.809 0 10.535 4.726 10.535 10.534v25.01c0 5.81-4.726 10.535-10.535 10.535zm-.242-42.079c-3.604 0-6.535 2.932-6.535 6.534v25.01c0 3.604 2.932 6.535 6.535 6.535h.242c3.603 0 6.535-2.932 6.535-6.535v-25.01c0-3.603-2.932-6.534-6.535-6.534z" fill="#3762cc"/></g><g><path d="m148.162 52.943h-.242c-5.809 0-10.535-4.726-10.535-10.535v-25.01c0-5.809 4.726-10.534 10.535-10.534h.242c5.809 0 10.535 4.726 10.535 10.534v25.01c0 5.81-4.726 10.535-10.535 10.535zm-.242-42.079c-3.603 0-6.535 2.932-6.535 6.534v25.01c0 3.604 2.932 6.535 6.535 6.535h.242c3.604 0 6.535-2.932 6.535-6.535v-25.01c0-3.603-2.932-6.534-6.535-6.534z" fill="#3762cc"/></g><g><path d="m227.37 123.368h-109.347c-2.585 0-4.681-2.096-4.681-4.681 0-2.585 2.096-4.681 4.681-4.681h109.347c2.585 0 4.681 2.096 4.681 4.681 0 2.586-2.096 4.681-4.681 4.681z" fill="#ffea92"/></g><g><path d="m184.867 229.141h-12.171-12.171l-17.783 14.443c-1.462 1.187-.622 3.552 1.261 3.552h57.385c1.883 0 2.723-2.365 1.261-3.552z" fill="#ffea92"/></g><g><path d="m129.188 181.438-7.412-4.422c-11.286-6.733-18.297-19.08-18.297-32.222 0-3.316 2.698-6.013 6.013-6.013 1.467 0 2.88.534 3.979 1.505l5.271 4.653c-.015-.609-.033-1.217-.033-1.828v-7.213c-2.641-2.331-5.267-3.873-9.217-3.873-7.053 0-12.77 5.717-12.77 12.77 0 15.592 8.201 30.036 21.592 38.024l21.672 12.93c-4.16-4.373-7.782-9.174-10.798-14.311z" fill="#ffea92"/></g><g><path d="m226.06 135.856c0 8.678.01 7.279-.032 9.041 5.255-4.638 6.294-6.115 9.203-6.115 3.316 0 6.013 2.698 6.013 6.013 0 13.142-7.011 25.488-18.297 32.222l-7.339 4.378c-3.007 5.129-6.62 9.922-10.765 14.29l21.566-12.866c13.39-7.989 21.591-22.432 21.591-38.025 0-10.253-12.154-17.575-21.94-8.938z" fill="#ffea92"/></g><g><path d="m118.709 123.368v19.742c0 29.082 16.838 55.751 43.689 69.197h9.986 9.986c26.851-13.446 43.689-40.115 43.689-69.197v-19.742z" fill="#ffea92"/></g><g><path d="m191.779 168.61c.363-2.933.375-5.969 0-9.002-1.822-12.962-8.823-21.984-17.242-25.927-1.404-.658-3.024-.658-4.428 0-8.417 3.942-15.42 12.963-17.242 25.927-.363 2.933-.375 5.969 0 9.002 1.822 12.962 8.823 21.984 17.242 25.927 1.404.658 3.024.658 4.428 0 8.417-3.941 15.419-12.962 17.242-25.927z" fill="#eaa97d"/></g><g><path d="m183.414 140.431c-3.488-1.15-7.237-1.754-11.092-1.754-3.854 0-7.604.604-11.092 1.754-1.497 1.692-2.962 3.734-4.26 6.189 4.323-2.536 9.623-4.03 15.351-4.03s11.029 1.494 15.352 4.03c-1.296-2.455-2.761-4.496-4.259-6.189z" fill="#e0ebfc"/></g><g><path d="m161.231 187.787c3.488 1.15 7.237 1.754 11.092 1.754 3.854 0 7.604-.604 11.092-1.754 1.497-1.692 2.962-3.734 4.26-6.189-4.323 2.536-9.623 4.03-15.351 4.03s-11.029-1.494-15.352-4.03c1.297 2.455 2.761 4.497 4.259 6.189z" fill="#e0ebfc"/></g><g><path d="m170.39 177.637v-27.056c0-1.067.865-1.933 1.933-1.933 1.067 0 1.933.865 1.933 1.933v27.056c0 1.067-.865 1.933-1.933 1.933-1.068 0-1.933-.865-1.933-1.933z" fill="#e0ebfc"/></g><g><path d="m166.825 156.379c0-1.032.836-1.868 1.868-1.868h7.258c1.032 0 1.868.836 1.868 1.868 0 1.032-.836 1.868-1.868 1.868h-7.258c-1.031 0-1.868-.836-1.868-1.868z" fill="#ffea92"/></g><g><path d="m166.825 164.109c0-1.032.836-1.868 1.868-1.868h7.258c1.032 0 1.868.836 1.868 1.868 0 1.032-.836 1.868-1.868 1.868h-7.258c-1.031 0-1.868-.836-1.868-1.868z" fill="#ffea92"/></g><g><path d="m166.825 171.84c0-1.032.836-1.868 1.868-1.868h7.258c1.032 0 1.868.836 1.868 1.868 0 1.032-.836 1.868-1.868 1.868h-7.258c-1.031 0-1.868-.837-1.868-1.868z" fill="#ffea92"/></g><g><path d="m183.11 196.248c2.484-.794 4.814-1.869 6.968-3.177-.412-.928-.223-2.612.572-4.317 1.048-2.247 2.746-3.672 3.793-3.184.897.418 1.019 2.107.38 3.994 4.034-3.587 7.124-8.121 9.005-13.153-.908-.421-1.926-1.57-2.642-3.105-1.048-2.247-1.048-4.464-.001-4.952s2.746.937 3.793 3.184c.06.129.116.258.17.387.889-4.062 1.025-8.34.267-12.635-.136-.77.378-1.504 1.148-1.639.77-.136 1.503.378 1.639 1.148.252 1.43.405 2.857.48 4.278.289-.326.617-.648.982-.954 1.899-1.594 4.04-2.168 4.783-1.282.743.885-.194 2.894-2.093 4.488-1.288 1.08-2.676 1.677-3.675 1.683-.328 5.605-1.989 10.985-4.726 15.741 2.133-.903 4.167-.858 4.632.139.488 1.048-.937 2.746-3.184 3.793-1.792.836-3.563 1.003-4.455.505-4.26 5.366-10.077 9.548-16.974 11.754-.062.02-.125.035-.187.046-.687.121-1.374-.28-1.592-.963-.238-.744.173-1.541.917-1.779z" fill="#eaa97d"/></g><g><path d="m161.535 196.248c-2.484-.794-4.814-1.869-6.968-3.177.412-.928.223-2.612-.572-4.317-1.048-2.247-2.746-3.672-3.793-3.184-.897.418-1.019 2.107-.38 3.994-4.034-3.587-7.124-8.121-9.005-13.153.908-.421 1.926-1.57 2.642-3.105 1.048-2.247 1.048-4.464.001-4.952s-2.746.937-3.793 3.184c-.06.129-.116.258-.17.387-.889-4.062-1.025-8.34-.267-12.635.136-.77-.378-1.504-1.148-1.639-.77-.136-1.503.378-1.639 1.148-.252 1.43-.405 2.857-.48 4.278-.289-.326-.617-.648-.982-.954-1.899-1.594-4.04-2.168-4.783-1.282s.194 2.894 2.093 4.488c1.288 1.08 2.676 1.677 3.675 1.683.328 5.605 1.989 10.985 4.726 15.741-2.133-.903-4.167-.858-4.632.139-.488 1.048.937 2.746 3.184 3.793 1.792.836 3.563 1.003 4.455.505 4.26 5.366 10.077 9.548 16.974 11.754.062.02.125.035.187.046.687.121 1.374-.28 1.592-.963.238-.744-.173-1.541-.917-1.779z" fill="#eaa97d"/></g><g><path d="m182.37 212.307h-9.986-9.986c-.187-.094-.369-.195-.555-.29l-1.317 17.124h24.341l-1.766-17.215c-.245.125-.484.258-.731.381z" fill="#ffea92"/></g><g><path d="m227.37 125.368h-109.347c-3.684 0-6.681-2.997-6.681-6.681s2.997-6.681 6.681-6.681h109.347c3.684 0 6.681 2.997 6.681 6.681s-2.997 6.681-6.681 6.681zm-109.347-9.361c-1.479 0-2.681 1.202-2.681 2.681s1.203 2.681 2.681 2.681h109.347c1.479 0 2.681-1.202 2.681-2.681s-1.203-2.681-2.681-2.681z" fill="#3762cc"/></g><g><path d="m201.389 249.136h-57.385c-1.716 0-3.196-1.045-3.77-2.662s-.083-3.361 1.249-4.442l17.782-14.443c.356-.289.802-.447 1.261-.447h24.341c.459 0 .904.158 1.261.447l17.783 14.443c1.332 1.081 1.822 2.825 1.249 4.442s-2.055 2.662-3.771 2.662zm-40.153-17.995-17.232 13.996 57.385-.001-17.232-13.995z" fill="#3762cc"/></g><g><path d="m139.984 197.748c-.351 0-.704-.092-1.024-.282l-21.671-12.93c-13.919-8.305-22.567-23.532-22.567-39.742 0-8.144 6.626-14.77 14.77-14.77 4.91 0 7.968 2.103 10.541 4.374.43.379.676.926.676 1.499v7.213c0 .509.013 1.017.026 1.523l.007.255c.02.795-.434 1.526-1.154 1.862-.722.337-1.573.214-2.168-.313l-5.271-4.652c-.734-.647-1.677-1.004-2.656-1.004-2.213 0-4.014 1.8-4.014 4.013 0 12.441 6.637 24.13 17.322 30.504l7.412 4.423c.289.173.529.415.7.705 2.936 4.999 6.476 9.69 10.522 13.944.689.724.737 1.846.113 2.626-.392.49-.974.752-1.564.752zm-30.492-63.724c-5.938 0-10.77 4.831-10.77 10.77 0 14.809 7.9 28.721 20.616 36.307l11.805 7.043c-1.21-1.707-2.351-3.459-3.417-5.248l-6.975-4.162c-11.888-7.093-19.272-20.098-19.272-33.939 0-4.418 3.595-8.013 8.014-8.013 1.955 0 3.838.712 5.303 2.006l1.914 1.689v-3.658c-2.107-1.741-4.153-2.795-7.218-2.795z" fill="#3762cc"/></g><g><path d="m204.844 197.685c-.59 0-1.171-.261-1.563-.751-.625-.78-.577-1.901.111-2.626 4.038-4.255 7.567-8.939 10.491-13.925.17-.29.411-.533.7-.706l7.338-4.379c10.685-6.374 17.322-18.063 17.322-30.504 0-2.213-1.8-4.013-4.013-4.013-1.543 0-2.132.439-5.52 3.501-.684.618-1.46 1.32-2.359 2.113-.596.525-1.446.649-2.168.314-.721-.336-1.174-1.066-1.155-1.861l.012-.469c.022-.863.021-.863.021-4.531v-3.993c0-.574.247-1.12.677-1.5 4.937-4.355 11.12-5.495 16.544-3.05 5.297 2.391 8.719 7.685 8.719 13.488 0 16.21-8.647 31.438-22.567 39.742l-21.565 12.866c-.321.192-.675.284-1.025.284zm12.226-14.834c-1.064 1.788-2.202 3.537-3.41 5.244l11.723-6.994c12.717-7.586 20.617-21.498 20.617-36.307 0-4.234-2.498-8.098-6.364-9.842-3.771-1.702-7.947-1.027-11.576 1.838v3.058.538c2.762-2.468 4.321-3.604 7.169-3.604 4.418 0 8.013 3.595 8.013 8.013 0 13.843-7.385 26.847-19.272 33.939z" fill="#3762cc"/></g><g><path d="m182.371 214.308h-19.973c-.311 0-.618-.072-.896-.212-27.629-13.836-44.793-41.036-44.793-70.985v-19.742c0-1.104.896-2 2-2h107.351c1.104 0 2 .896 2 2v19.742c0 29.949-17.164 57.149-44.793 70.985-.279.139-.585.212-.896.212zm-19.497-4h19.021c26.022-13.218 42.165-38.923 42.165-67.197v-17.742h-103.351v17.742c0 28.274 16.143 53.979 42.165 67.197z" fill="#3762cc"/></g><g><path d="m184.867 231.141h-24.341c-.557 0-1.089-.232-1.467-.641-.379-.409-.569-.957-.527-1.513l1.317-17.123c.051-.666.432-1.263 1.014-1.59s1.29-.342 1.886-.04l.14.073h18.993l.305-.16c.587-.302 1.288-.294 1.868.02.582.315.969.897 1.037 1.555l1.766 17.215c.058.563-.126 1.124-.505 1.544-.381.419-.92.66-1.486.66zm-22.181-4h19.965l-1.316-12.833h-17.663z" fill="#3762cc"/></g></g></svg>