<?xml version="1.0" encoding="iso-8859-1"?>
<!-- Generator: Adobe Illustrator 19.0.0, SVG Export Plug-In . SVG Version: 6.00 Build 0)  -->
<svg version="1.1" id="Capa_1" xmlns="http://www.w3.org/2000/svg" xmlns:xlink="http://www.w3.org/1999/xlink" x="0px" y="0px"
	 viewBox="0 0 512.001 512.001" style="enable-background:new 0 0 512.001 512.001;" xml:space="preserve">
<g transform="translate(0 -1)">
	<path style="fill:#E6E7E8;" d="M104.136,421.876H52.242c-4.63,0.038-9.085-1.773-12.375-5.031
		c-3.291-3.258-5.146-7.694-5.154-12.324v-40.786l62.915,8.244C97.628,371.978,104.015,416.246,104.136,421.876z"/>
	<path style="fill:#BDC3C7;" d="M485.797,307.342c-0.63-3.137-2.934-5.672-5.996-6.598c-3.062-0.926-6.385-0.092-8.648,2.17
		c-21.449,21.412-47.032,38.233-75.191,49.441l-21.784-102.725c-0.635-3.041-2.847-5.511-5.8-6.475
		c-2.953-0.964-6.196-0.276-8.503,1.804s-3.326,5.235-2.671,8.272l22.25,104.945c-2.326,0.712-4.669,1.386-7.029,2.038
		l-20.915,5.725c-2.99,0.819-5.316,3.171-6.101,6.17c-0.786,2.999,0.088,6.189,2.292,8.369c2.204,2.18,5.404,3.018,8.394,2.199
		l20.932-5.729c2.199-0.606,4.212-1.182,6.098-1.746l6.392,29.298l-55.807,15.973c-2.985,0.85-5.289,3.23-6.042,6.241
		c-0.753,3.011,0.159,6.195,2.392,8.351s5.447,2.954,8.43,2.095l57.157-16.362c10.676,19.574,31.175,31.769,53.47,31.811
		c1.775,0,3.564-0.076,5.352-0.233l49.64-4.513c2.453-0.222,4.696-1.476,6.169-3.449c1.474-1.973,2.039-4.48,1.555-6.895
		L485.797,307.342z M471.844,326.02l7.065,35.332c-21.645,17.155-46.298,30.126-72.696,38.248l-6.559-30.055
		C426.09,359.398,450.528,344.663,471.844,326.02z M452.92,435.088c-15.9,1.394-31.281-6.056-40.042-19.397
		c25.058-7.877,48.648-19.826,69.824-35.369l10.223,51.131L452.92,435.088z"/>
	<path style="fill:#4482C3;" d="M329.763,311.753c-0.007,15.32,5.058,30.211,14.405,42.348
		c12.297,15.943,13.935,37.673,4.165,55.279l-2.69,4.86c-10.266,18.661-25.454,34.149-43.911,44.778v0.087
		c-31.375,18.001-69.512,19.746-102.4,4.686l-24.732-11.368c-0.688-0.35-1.417-0.612-2.169-0.781l-57.969-15.013
		c-6.14-1.664-10.384-7.263-10.327-13.624v-1.128c-0.254-11.683-4.203-22.984-11.281-32.282
		c-7.231-9.457-17.496-16.137-29.071-18.918l-29.071-6.942l-12.583-2.951C-11.38,291.152-6.583,209.157,34.816,143.907
		S148.355,39.39,225.628,40.046c99.363,0,167.138,45.473,200.721,112.814l8.996,71.955l-61.932,23.069
		C346.927,257.936,329.508,283.424,329.763,311.753z"/>
	<g>
		<circle style="fill:#E6E7E8;" cx="160.543" cy="408.851" r="13.017"/>
		<circle style="fill:#E6E7E8;" cx="221.289" cy="426.207" r="13.017"/>
		<circle style="fill:#E6E7E8;" cx="273.356" cy="417.529" r="13.017"/>
		<circle style="fill:#E6E7E8;" cx="256.001" cy="235.291" r="13.017"/>
	</g>
	<circle style="fill:#285680;" cx="221.289" cy="330.749" r="47.729"/>
	<path style="fill:#90BAE1;" d="M34.712,274.338c-1.151,0.001-2.255-0.456-3.069-1.27c-0.814-0.814-1.271-1.918-1.27-3.069
		c0-105.271,75.911-190.915,169.22-190.915c2.396,0,4.339,1.943,4.339,4.339s-1.943,4.339-4.339,4.339
		c-88.525,0-160.542,81.75-160.542,182.237c0.001,1.151-0.456,2.255-1.27,3.069C36.967,273.882,35.863,274.339,34.712,274.338z"/>
	<path style="fill:#E6E7E8;" d="M463.23,220.547l-20.48,9.459c-2.426,1.152-5.212,1.287-7.739,0.374
		c-2.526-0.913-4.583-2.797-5.712-5.234l-20.306-49.725c-2.911-7.404,0.043-15.824,6.942-19.786
		c3.126-1.922,6.746-2.887,10.414-2.777c6.587-0.019,12.68,3.491,15.967,9.199l25.253,46.514c1.139,2.144,1.317,4.669,0.49,6.951
		C467.232,217.805,465.478,219.631,463.23,220.547z"/>
</g>
<g>
</g>
<g>
</g>
<g>
</g>
<g>
</g>
<g>
</g>
<g>
</g>
<g>
</g>
<g>
</g>
<g>
</g>
<g>
</g>
<g>
</g>
<g>
</g>
<g>
</g>
<g>
</g>
<g>
</g>
</svg>
